<?xml version="1.0" standalone="no"?>
<!DOCTYPE svg PUBLIC "-//W3C//DTD SVG 20010904//EN"
 "http://www.w3.org/TR/2001/REC-SVG-20010904/DTD/svg10.dtd">
<svg version="1.0" xmlns="http://www.w3.org/2000/svg"
 width="512.000000pt" height="512.000000pt" viewBox="0 0 512.000000 512.000000"
 preserveAspectRatio="xMidYMid meet">
<metadata>
Created by potrace 1.11, written by Peter Selinger 2001-2013
</metadata>
<g transform="translate(0.000000,512.000000) scale(0.100000,-0.100000)"
fill="#000000" stroke="none">
<path d="M18 4889 c-6 -4 473 -490 1064 -1081 929 -930 1218 -1224 1218 -1242
0 -2 -460 -465 -1023 -1028 -1043 -1043 -1272 -1276 -1263 -1286 3 -3 131 -6
283 -8 153 -2 339 -4 413 -5 141 -2 195 7 245 41 27 18 701 688 1872 1863
l423 424 -87 94 c-47 52 -526 533 -1062 1070 -537 537 -1005 1007 -1041 1044
-36 37 -80 80 -99 94 l-34 26 -450 0 c-247 0 -453 -3 -459 -6z"/>
<path d="M1884 4888 c-2 -3 467 -478 1043 -1055 1009 -1010 1243 -1248 1243
-1265 0 -4 -458 -466 -1018 -1025 -1016 -1016 -1277 -1282 -1267 -1291 3 -3
119 -7 258 -8 138 -1 322 -3 407 -4 170 -2 204 1 259 29 29 16 684 666 2118
2104 39 40 99 98 132 131 l61 58 -52 62 c-29 33 -547 557 -1153 1163 -1077
1077 -1102 1101 -1145 1107 -59 9 -881 3 -886 -6z"/>
</g>
</svg>
